<svg version="1.0" xmlns="http://www.w3.org/2000/svg" width="1365.333" height="1365.333" viewBox="0 0 1024 1024"><path d="M480.5 1.1c-78.2 5.4-150.5 26.6-218 64.1C200.6 99.6 145 148.3 101.9 206c-36.9 49.2-65 106.1-82 165.5-26.1 91.4-26.1 189.6 0 281C50.6 760.1 116.1 854.9 206 922.1c41.6 31.1 92.2 57.8 141.5 74.6 95.6 32.6 203.4 35.7 300.5 8.7 87.1-24.2 165.4-70.3 228.6-134.6 79.8-81.1 129.3-183.7 143.4-296.8 11.2-90.9-3.2-187.1-40.4-269.8-35-78-86.1-143.2-153.6-196.3-56.6-44.5-129.8-79.1-201.5-95.2-45.8-10.3-99.4-14.6-144-11.6zM354.4 297.5c13 1.8 24.8 4.5 37.6 8.6 13 4.2 27 10.2 27 11.5 0 .9-11.6 33.6-15.9 44.6l-1 2.7-6.5-2.9c-11-5-31.5-11.6-43.6-14-13.8-2.8-40.8-3.4-55.5-1.1-29.1 4.4-57.8 21.2-75.9 44.5-21.8 28-33.2 61.8-35.5 105.1-3.1 60.6 12.6 112.2 44.3 145.4 21.7 22.6 46.5 34.4 78.4 37.2 31 2.8 64.4-4.4 93.9-20.1l9.3-5 1.3 3.3c6 14.4 15.9 43.9 15 44.8-1.9 1.9-25 11.7-35.9 15.2-23.1 7.5-37.9 10.2-63.4 11.8-58.6 3.7-105.2-12.4-142.1-49.1-31.6-31.3-50-71.7-57.5-126-2.3-16-2.5-59.5-.5-75 5.6-43.5 18.2-78 40.1-109.3 8.3-11.8 28.8-32.3 41-41 12.1-8.6 34.1-19.7 47.9-24.1 12.2-4 27.6-7.2 40.6-8.5 12.1-1.3 43.4-.5 56.9 1.4zM617.7 374c17.2 39.3 43.3 98.9 58 132.3 14.6 33.4 26.9 60.4 27.4 60 .4-.4 26.3-60.1 57.5-132.6L817.4 302H899v421h-57l-.2-173.5-.3-173.4L785.6 502l-55.9 126h-56.4l-55.9-125.3-55.9-125.3L561 550l-.5 172.5h-54l-.3-209c-.1-115 0-209.6.3-210.3.3-1 8.9-1.2 40.2-1l39.7.3 31.3 71.5z"/></svg>